<svg viewBox="0 0 284.46 301.73" xmlns="http://www.w3.org/2000/svg"><path d="m128.54 61.57h20.85c.45-3.37.83-6.27 1.24-9.32-4.63-2.55-8.11-6.19-9.63-11.36a17.77 17.77 0 0 1 33.4-11.95c3.68 8.6 0 19-8.56 22.8-3.24 1.43-4.31 3.17-4.21 6.36a24.78 24.78 0 0 1 -.49 4.06l22.86 7.44 8.9-16.67c-3.9-4.93-5.8-10.29-4.19-16.58a17.7 17.7 0 0 1 20.6-13.07c8.58 1.52 15.16 10.29 14.29 19.06a17.48 17.48 0 0 1 -18.16 15.88 3.42 3.42 0 0 0 -3.77 2.16c-2.47 4.9-5.09 9.73-7.45 14.22l22.2 19.24c6.15-4.56 12.7-9.54 19.41-14.31 2.75-2 4.15-3.74 3.63-7.65-1.21-9.15 6.87-17.72 16.56-18.46 9-.68 17.91 7 18.59 15.94.53 7-1.94 12.66-7.79 16.57s-11.8 4-18 .77a3.43 3.43 0 0 0 -2.91-.1c-7.66 5.42-15.22 11-22.25 16.09 4.49 10.43 8.85 20.57 13.4 31.13l6.55-.85c1.55-6.39 5.2-11 11.43-13.33a17.8 17.8 0 0 1 21.83 8.79 17.55 17.55 0 0 1 -5.53 22.33c-7.25 5.16-17.72 4.44-23.25-2.57-3-3.86-5.9-3.65-10-2.36a94.46 94.46 0 0 1 -4.09 40.17c6.21 2.69 12.26 5.35 18.36 7.87.56.23 1.67-.28 2.25-.76 6.56-5.48 14.81-6.11 21.49-1.57a18.36 18.36 0 0 1 7 20.58 17.85 17.85 0 0 1 -17.54 12.27c-8.4-.25-15.79-6.69-16.7-15.08-.35-3.26-1.6-4.92-4.64-6.06-4.95-1.86-9.71-4.21-14.73-6.43a103 103 0 0 1 -27.17 33.75c2.54 3.81 4.81 7.44 7.35 10.86.51.68 2.08.89 3.13.82a18.22 18.22 0 0 1 19.35 17.49c.24 10-8.54 18.47-18.77 18-12.86-.59-20.85-14.8-14.6-26.28a4.76 4.76 0 0 0 -.06-5.51c-1.65-2.68-3-5.55-4.36-8.11l-23.46 10.33c.21 1.1.5 2.66.78 4.14 9.8 2.88 14.65 8.21 15.47 16.86.88 9.23-6.87 18-16.66 18.88-9 .8-17.87-6.79-18.6-15.83-.48-5.87 1.19-10.89 5.48-15 2.79-2.66 2.81-2.64 1.56-6.6-14.12 1.6-28.2 1.17-42.18-3.08-.37.77-.76 1.45-1 2.17-1.57 4.09-2.95 8.26-4.71 12.26-2 4.49-3 8.08 1 12.74 4.87 5.76 3.34 14.79-1.86 20.55a17.63 17.63 0 0 1 -30.56-14.7 17.18 17.18 0 0 1 14.59-14.46 4.7 4.7 0 0 0 4.48-3.62c2.07-6.08 4.45-12 6.7-18a1.75 1.75 0 0 0 .07-.48l-21.76-13.26-3.7 3.9c.31 4.8 1.26 8.88.67 12.71a17.51 17.51 0 0 1 -20.55 14.26c-9.67-2-16-11.4-14.12-20.79 2-9.9 11.63-16.46 21.33-13.83 4.8 1.3 5.49-2.53 7.9-4.23l-12.43-15.76a38.93 38.93 0 0 0 -4.86 2.4 3.44 3.44 0 0 0 -1 2.49c-.26 10.18-7 17.55-16.86 18.35-8.8.71-16.93-5.89-18.38-15.35-1-6.82 1.52-12.52 7-16.59 5.76-4.25 12.37-5.1 18.4-1.38 4.09 2.53 7 2 9.8-.28l-8.37-31.64c-3.44 0-7.71-.15-12 .12-.88.05-1.89 1.54-2.45 2.57-3.49 6.44-10.5 10.6-17 10a18.35 18.35 0 0 1 -16-13.2 17.77 17.77 0 0 1 10.22-20.92 17.49 17.49 0 0 1 22.07 7.31 4.41 4.41 0 0 0 4.79 2.6c3.45-.22 6.92-.06 10.77-.06a98.18 98.18 0 0 1 18.87-53.48c-3.11-2.65-6.11-5.36-9.32-7.79-.58-.43-2.1.15-3.09.53a17.54 17.54 0 0 1 -23.75-12.12c-2.5-9.31 3.63-19.24 13.29-21.56 9.21-2.18 19.19 4 21 13.23a22.25 22.25 0 0 1 .07 7.59c-.33 2.14-.13 3.53 1.73 4.87 2.55 1.84 4.86 4 7.49 6.24a97.17 97.17 0 0 1 42.2-26.06c-2.08-9.25-4.08-18.36-6.31-27.42-.21-.87-1.84-1.65-3-2a18.38 18.38 0 0 1 -13.11-17.26 17.91 17.91 0 0 1 13-17 17.69 17.69 0 0 1 20.22 8.3 17 17 0 0 1 -3.16 21.28c-2.49 2.23-2.77 4.13-2 7.09 1.99 7.96 3.72 16.02 5.48 23.71z" fill="#1d1d1b" stroke="#fff" stroke-miterlimit="10"/><path d="m70.32 207.19c-.49-.46-.69-.62-.85-.81a52.81 52.81 0 0 1 -10.28-18.38 58.36 58.36 0 0 1 -2.48-16 5.35 5.35 0 0 0 -5.48-5.42 5.53 5.53 0 0 0 -5.29 5.8 60.78 60.78 0 0 0 2.44 17.22c4.2 14.2 12.46 25.46 24.3 34.35a132.51 132.51 0 0 0 43.19 21.73 102.81 102.81 0 0 0 42.25 3.32 94.39 94.39 0 0 0 35.65-12.29c12.42-7.3 23.8-15.87 32.33-27.71 7.9-11 12.55-23 12.6-36.7a5.41 5.41 0 0 0 -5.29-5.76 5.49 5.49 0 0 0 -5.46 5.6 56.32 56.32 0 0 1 -.41 5.81c-1.38 10.09-5.69 18.9-11.89 26.86-.34.43-.71.83-1.18 1.38a4.6 4.6 0 0 1 -.11-.62q0-25 0-50a2.75 2.75 0 0 1 .49-1.63c1.72-2.07 3.43-4.17 5.33-6a8.75 8.75 0 0 1 5.84-2.46 5.26 5.26 0 0 0 4.84-5.47 5.19 5.19 0 0 0 -5.14-5.17 18.45 18.45 0 0 0 -4.62.58c-5.86 1.6-10 5.51-13.56 10.21a2 2 0 0 1 -2.67.88q-30-9-60-18a8.37 8.37 0 0 0 -5 0q-30.14 9-60.28 18.05a1.79 1.79 0 0 1 -2.28-.72 49.5 49.5 0 0 0 -5.13-5.59c-3.66-3.3-7.88-5.45-13-5.44a5.32 5.32 0 0 0 -5.42 5.19 5.72 5.72 0 0 0 4.94 5.51 12.66 12.66 0 0 1 5.3 2.02 32.89 32.89 0 0 1 5.29 5.63 5.29 5.29 0 0 1 1 3.08q.09 24.47 0 48.92z" fill="#fff"/><path d="m70.32 207.19v-2q0-24.47 0-48.92a5.29 5.29 0 0 0 -1-3.08 32.89 32.89 0 0 0 -5.32-5.66 12.66 12.66 0 0 0 -5.29-2.06 5.72 5.72 0 0 1 -4.95-5.47 5.32 5.32 0 0 1 5.45-5.25c5.08 0 9.3 2.14 13 5.44a49.5 49.5 0 0 1 5.13 5.59 1.79 1.79 0 0 0 2.28.72q30.14-9.06 60.28-18.05a8.37 8.37 0 0 1 5 0q30 9 60 18a2 2 0 0 0 2.67-.88c3.52-4.7 7.7-8.61 13.56-10.21a18.45 18.45 0 0 1 4.62-.58 5.19 5.19 0 0 1 5.14 5.17 5.26 5.26 0 0 1 -4.84 5.47 8.75 8.75 0 0 0 -5.84 2.46c-1.9 1.88-3.61 4-5.33 6a2.75 2.75 0 0 0 -.49 1.63q0 25 0 50a4.6 4.6 0 0 0 .11.62c.47-.55.84-.95 1.18-1.38 6.2-8 10.51-16.77 11.89-26.86a56.32 56.32 0 0 0 .41-5.81 5.49 5.49 0 0 1 5.46-5.6 5.41 5.41 0 0 1 5.29 5.76c-.08 13.76-4.73 25.76-12.63 36.76-8.53 11.84-19.91 20.41-32.33 27.71a94.39 94.39 0 0 1 -35.65 12.29 102.81 102.81 0 0 1 -42.25-3.34 132.51 132.51 0 0 1 -43.19-21.73c-11.84-8.89-20.1-20.15-24.3-34.35a60.78 60.78 0 0 1 -2.44-17.22 5.53 5.53 0 0 1 5.29-5.8 5.35 5.35 0 0 1 5.48 5.44 58.36 58.36 0 0 0 2.48 16 52.81 52.81 0 0 0 10.28 18.35c.16.22.36.38.85.84zm133.21-19.94c0-9.44 0-18.89 0-28.33 0-1.35-.45-1.83-1.68-2.2q-29.07-8.62-58.13-17.3a5.25 5.25 0 0 0 -2.78 0c-19.38 5.75-38.74 11.56-58.13 17.3a2 2 0 0 0 -1.64 2.28q.08 28 0 56a3 3 0 0 0 1.44 2.75 122 122 0 0 0 36.86 17.58 89.63 89.63 0 0 0 40.95 2.28c15.77-2.9 29.61-9.95 42-20a3.29 3.29 0 0 0 1.06-2.28c.08-9.33.05-18.69.05-28.08z" fill="none" stroke="#1a1a1a" stroke-miterlimit="10" stroke-width="4"/></svg>