<svg height="777.89947" viewBox="0 0 908.62314 777.89947" width="908.62314" xmlns="http://www.w3.org/2000/svg"><ellipse cx="123.57123" cy="330.54811" fill="#79d1c3" rx="95.37247" ry="194.59837"/><path d="m268.38406 393.61678c4.7574-84.70728 14.34278-141.9244 14.43909-142.49248l-2.07973-.35229c-.09631.5686-9.69868 57.8774-14.46381 142.69386-4.39739 78.28064-5.45837 196.68479 14.4633 316.21379l2.08075-.3461c-19.88766-119.32608-18.82927-237.551-14.4396-315.71678z" fill="#3f3d56" transform="translate(-145.68843 -61.05027)"/><path d="m262.97947 375.08617h97.80632v2.10972h-97.80632z" fill="#3f3d56" transform="matrix(.88165867 -.47188768 .47188768 .88165867 -286.27613 130.6363)"/><path d="m219.80149 350.35844h2.10972v97.80632h-2.10972z" fill="#3f3d56" transform="matrix(.47165223 -.88178465 .88178465 .47165223 -381.06222 344.64643)"/><ellipse cx="784.89356" cy="252.45832" fill="#79d1c3" rx="123.72957" ry="252.45832"/><path d="m929.07915 316.0948c6.17285-109.91113 18.61085-184.15186 18.73585-184.88916l-1.97168-.334c-.125.73779-12.5791 75.06542-18.75928 185.08007-5.70459 101.5376-7.08057 255.11768 18.75879 410.15284l1.97266-.32813c-25.80714-154.84373-24.43312-308.25291-18.73634-409.68162z" fill="#3f3d56" transform="translate(-145.68843 -61.05027)"/><path d="m922.43432 292.45509h126.88732v2.00012h-126.88732z" fill="#3f3d56" transform="matrix(.88165703 -.47189076 .47189076 .88165703 -167.49547 438.9048)"/><path d="m866.7871 260.00661h2.00012v126.88732h-2.00012z" fill="#3f3d56" transform="matrix(.47165223 -.88178465 .88178465 .47165223 27.59148 875.04534)"/><ellipse cx="635.81992" cy="478.96817" fill="#e6e6e6" rx="46.22863" ry="94.32509"/><path d="m781.46764 544.08223.27362.51159 41.79785-22.37207-.94336-1.76367-41.041 21.967c2.27112-41.80139 6.91614-69.86267 7.00977-70.41522l-1.97168-.334c-.10223.6034-5.62122 33.92652-7.58014 82.1449l-41.39349-22.15564-.94336 1.76367 41.79785 22.37207.499-.9328c-1.56732 39.79737-.68884 89.55964 7.61969 139.41034l1.97266-.32812c-9.05872-54.35249-9.25824-108.60279-7.09741-149.86805z" fill="#3f3d56" transform="translate(-145.68843 -61.05027)"/><path d="m1015.74556 746.816c-246.23242-77.94726-469.50879-73.79492-613.45459-56.585-155.94727 18.64459-254.90381 56.18854-255.88477 56.56549l-.71777-1.86719c.98389-.37793 100.17334-38.01074 256.36524-56.68457a1486.92035 1486.92035 0 0 1 276.89013-7.083 1444.325 1444.325 0 0 1 337.40528 63.748z" fill="#3f3d56" transform="translate(-145.68843 -61.05027)"/><path d="m462.20019 724.78684s.69057-14.46983 14.84713-12.78791" fill="#3f3d56" transform="translate(-145.68843 -61.05027)"/><circle cx="312.51176" cy="642.88148" fill="#79d1c3" r="7.08526"/><path d="m311.35889 654.81263h2v14h-2z" fill="#3f3d56"/><path d="m720.20019 727.78684s.69057-14.46983 14.84713-12.78791" fill="#3f3d56" transform="translate(-145.68843 -61.05027)"/><circle cx="570.51176" cy="645.88148" fill="#79d1c3" r="7.08526"/><path d="m569.35889 657.81263h2v14h-2z" fill="#3f3d56"/><path d="m295.20019 702.78684s.69057-14.46983 14.84713-12.78791" fill="#3f3d56" transform="translate(-145.68843 -61.05027)"/><circle cx="145.51176" cy="620.88148" fill="#79d1c3" r="7.08526"/><path d="m144.35889 632.81263h2v14h-2z" fill="#3f3d56"/><path d="m404.20019 683.78684s.69057-14.46983 14.84713-12.78791" fill="#3f3d56" transform="translate(-145.68843 -61.05027)"/><circle cx="254.51176" cy="601.88148" fill="#79d1c3" r="7.08526"/><path d="m253.35889 613.81263h2v14h-2z" fill="#3f3d56"/><path d="m677.20019 710.78684s.69057-14.46983 14.84713-12.78791" fill="#3f3d56" transform="translate(-145.68843 -61.05027)"/><circle cx="527.51176" cy="628.88148" fill="#79d1c3" r="7.08526"/><path d="m526.35889 640.81263h2v14h-2z" fill="#3f3d56"/><path d="m984.7021 681.77975 41.15828 61.0278-38.31978 38.31978-4.96738-9.93476 8.51551-19.86951s-1.41925-18.45027-6.38663-23.41765-26.96577-34.77165-26.96577-34.77165z" fill="#ffb8b8" transform="translate(-145.68843 -61.05027)"/><path d="m932.18981 484.50385s7.80435 12.35225-8.517 65.57417c0 0 76.13 128.48795 64.06637 137.00346s-44.70886 27.361-53.22437 21.684-70.44905-198.00548-70.44905-198.00548z" fill="#2f2e41" transform="translate(-145.68843 -61.05027)"/><path d="m1018.40931 731.80835 12.41845 12.41845c6.38663 6.38663 10.64439 15.61176-1.41925 23.41764s-53.93151 36.90056-68.12405 27.6754 17.031-17.74064 17.031-17.74064 5.163-19.14312 7.90367-14.89375 2.74071 12.76488 2.74071 12.76488z" fill="#2f2e41" transform="translate(-145.68843 -61.05027)"/><path d="m868.32351 715.13215s-22.708 41.86791-22.708 46.83529 1.41925 19.15989 1.41925 19.15989l-43.28716 10.64438-14.90213-7.09625 4.96738-12.77326s26.96577-9.22513 32.64277-26.96577 12.06364-36.19091 12.06364-36.19091z" fill="#ffb8b8" transform="translate(-145.68843 -61.05027)"/><circle cx="748.89122" cy="207.72741" fill="#ffb8b8" r="29.80427"/><path d="m886.77377 294.3242 14.22936 40.88508 31.18668-13.91928s-21.28881-32.64281-21.28881-36.90056z" fill="#ffb8b8" transform="translate(-145.68843 -61.05027)"/><path d="m882.516 439.79744h37.61015s26.96578 41.15828 11.354 84.44544c-2.39072 6.62882-4.764 15.91425-7.13271 26.89228-5.44757 25.2469-10.87142 59.44586-16.42968 90.87152-7.80743 44.1422-15.88 82.81253-24.65611 83.51462-17.74064 1.41925-52.23873 1.18244-52.23873-5.91382s23.108-212.39562 23.108-212.39562l4.96738-8.5155.93889-37.0924a22.37292 22.37292 0 0 1 22.47881-21.80652z" fill="#2f2e41" transform="translate(-145.68843 -61.05027)"/><path d="m845.26068 761.61263s8.16069 13.8377 6.03182 23.77245-5.677 8.51551-21.28877 9.93476-68.83373 1.41925-68.83373-8.51551 41.51765-22.83651 41.69278-18.86932 1.59438 11.77307-2.66337 13.19232-.35482.35481-.35482.35481z" fill="#2f2e41" transform="translate(-145.68843 -61.05027)"/><path d="m886.77975 528.37025s-3.08711 50.40877-23.6759 35.40206 8.02355-42.1147 8.02355-42.1147z" fill="#fff" transform="translate(-145.68843 -61.05027)"/><path d="m927.87211 461.98051a5.97691 5.97691 0 0 0 6.11867-.72426 6.26925 6.26925 0 0 0 2.32148-3.95407c2.97657-17.16055 6.60075-64.73426 8.68825-88.79059 2.61936-30.18586-10.46455-53.5657-10.57424-53.708l-7.71042-10.60184a6.0519 6.0519 0 0 0 -7.24767-2.03428s-24.07149 24.97453-24.16018 25.93878c-.37768 4.14064-3.24252 13.31657-18.17514 28.2492-16.33872 16.33871-16.4295 30.59879-16.06776 34.58039q.03561.39265.03644.78467a17.50508 17.50508 0 0 0 .71957 5.27949c6.84364 21.5755 1.48429 47.40621-7.122 74.36917a6.08122 6.08122 0 0 0 2.45109 6.599c2.51349 1.71-.5007-.82731.39588.2713 5.93143 7.268 14.46694-2.86172 24.23053-13.91462 3.40121-3.85027 7.25633-8.2144 11.7996-12.75767 6.24665-6.247 18.18242 8.00789 23.73192 8.00789a25.77032 25.77032 0 0 1 10.56398 2.40544z" fill="#575a89" transform="translate(-145.68843 -61.05027)"/><path d="m931.18174 325.81116s15.58848 13.14643 6.7324 30.19594-7.67868 29.62436-7.67868 29.62436-2.35783 117.12469-30.03044 111.4341l-12.5875 34.75249-22.73355-8.2052 13.14558-30.65251s-10.529-.6548-7.45237-7.8288c2.16091-5.03874 13.80288-59.71868 20.54161-91.82185 2.85564-13.60421 4.83077-23.15415 4.83077-23.15415s8.95673-47.89154 35.23218-44.34438z" fill="#575a89" transform="translate(-145.68843 -61.05027)"/><path d="m788.763 324.281-8.765 57.509 4.729-61.493z" opacity=".2"/><path d="m862.06229 255.57216s-5.01067-38.99525 35.873-26.2078c0 0 29.1994-5.35766 38.775 31.16631l9.696 38.28613-4.72533-2.572-2.203 4.81545-7.65722 1.93919-3.27672-6.50366-1.58513 7.89789-62.71687 6.25234s28.08963-16.612 28.53506-46.38472l-5.35049 5.65407z" fill="#2f2e41" transform="translate(-145.68843 -61.05027)"/><path d="m763.014 583.199 13.985-93.186-11.374 100.598z" opacity=".2"/><circle cx="785.86943" cy="168.69591" fill="#2f2e41" r="15.77018"/><path d="m915.30806 225.8854a15.75777 15.75777 0 0 1 15.76272-14.73946c-.32565-.04131-.64837-.09154-.98042-.11288a15.77018 15.77018 0 1 0 -2.02364 31.47537c.332.02135.65854.01287.9868.0136a15.75777 15.75777 0 0 1 -13.74546-16.63663z" fill="#2f2e41" transform="translate(-145.68843 -61.05027)"/><path d="m740.865 342.202-13.875 74.365 17.984-82.137z" opacity=".2"/><path d="m887.41861 290.2558-8.0868 6.0971c-8.32851-4.19115-14.575-13.88834-16.84527-23.14382l8.81225-4.44638c.69265 9.44004 7.3935 15.716 16.11982 21.4931z" fill="#fff" transform="translate(-145.68843 -61.05027)"/><path d="m890.77691 270.106h-20.14978a.67166.67166 0 0 1 0-1.34332h20.14978a.67166.67166 0 0 1 0 1.34332z" fill="#fff" transform="translate(-145.68843 -61.05027)"/><path d="m886.747 290.2558a.67107.67107 0 0 1 -.62312-.92091l5.37327-13.43319a.67113.67113 0 1 1 1.24625.4985l-5.37328 13.43319a.67052.67052 0 0 1 -.62312.42241z" fill="#fff" transform="translate(-145.68843 -61.05027)"/><ellipse cx="746.44397" cy="210.09264" fill="#ffb8b8" rx="4.92818" ry="6.89945"/><path d="m399.191 230.876 52.486 12.011 22.176-41.825-44.879-17.522z" fill="#2f2e41"/><path d="m572.76549 517.07715s-16.87156 38.664-16.87156 49.91169c0 0 6.67833 30.5797 4.56938 39.01548l-7.38131 15.81709-15.46559-6.32683-4.21789-42.1789.703-67.48624z" fill="#ffb9b9" transform="translate(-145.68843 -61.05027)"/><path d="m582.25574 285.79618s1.406 23.1984-1.406 30.22821 10.54472 20.38647 10.54472 20.38647l21.08954-27.41628s-14.05963-14.05963-10.54472-29.52523z" fill="#ffb9b9" transform="translate(-145.68843 -61.05027)"/><path d="m538.31939 446.42749s-20.38647 37.961-.703 35.14908 13.00518-36.20357 13.00518-36.20357" fill="#e6e6e6" transform="translate(-145.68843 -61.05027)"/><path d="m404.933 384.323 6.678-66.432-.351-40.421-15.466 2.811v37.258l-3.163 67.838" fill="#ffb9b9"/><path d="m533.75 610.5737 30.22822-11.9507 3.51491 59.75344s6.32687 18.27756 4.21787 25.30736c0 0 1.406 11.95068-2.10895 12.65367s-13.35665 2.10894-14.05963 1.406-.703-2.81193-.703-2.81193-7.02982 4.92087-7.7328 10.54473c0 0-29.52523 9.13876-30.22821.703s14.76261-15.4656 14.76261-15.4656l11.95069-18.27752z" fill="#2f2e41" transform="translate(-145.68843 -61.05027)"/><path d="m635.68235 517.07715s-16.87156 38.664-16.87156 49.91169c0 0 6.67832 30.5797 4.56938 39.01548l-7.38131 15.81709-15.4656-6.32683-4.21789-42.1789.703-67.48624z" fill="#ffb9b9" transform="translate(-145.68843 -61.05027)"/><path d="m597.72134 610.5737 30.22821-11.9507 3.51491 59.75344s6.32683 18.27752 4.21789 25.30734c0 0 1.406 11.95068-2.109 12.65367s-13.35665 2.10894-14.05963 1.406-.703-2.81193-.703-2.81193-7.02982 4.92087-7.7328 10.54473c0 0-29.52523 9.13876-30.22821.703s14.76261-15.4656 14.76261-15.4656l11.95069-18.27752z" fill="#2f2e41" transform="translate(-145.68843 -61.05027)"/><path d="m611.78584 269.631a22.4967 22.4967 0 0 1 -44.44619 4.92186 21.79764 21.79764 0 0 1 -.55068-4.92186 22.49844 22.49844 0 0 1 44.99687 0z" fill="#ffb9b9" transform="translate(-145.68843 -61.05027)"/><path d="m592.09748 314.61843 17.45674-9.06537 7.8506 6.25344s18.98051-.703 26.01033 7.7328 10.89621 29.8767 10.89621 29.8767-23.19839-4.92087-20.38647 14.76262l-4.21789-11.24769-3.8664 9.49025-47.09977 16.16858-21.08945-35.85206s-14.05963-4.21789-18.9805 5.62385c0 0 1.05447-35.50057 14.76261-36.555 9.21905-.70915 16.16858-.703 16.16858-.703l7.7328-1.406 4.95194-1.75745z" fill="#575a89" transform="translate(-145.68843 -61.05027)"/><path d="m621.97412 391.595s36.90662 110.71956 26.3619 126.18516c0 0-39.367 19.68348-118.10092-7.02982l31.9856-124.07624q29.47119-6.0271 59.75342 4.9209z" fill="#2f2e41" transform="translate(-145.68843 -61.05027)"/><path d="m621.97412 391.595 10.38705-35.69436c-12.45993-13.55038-1.70576-43.59776-1.70576-43.59776l-15.03427-3.22163s-15.08788 40.68629-30.55347 35.76542-7.02982-36.555-7.02982-36.555l-14.05963 1.406-6.32684 24.60436 4.56932 52.37215c19.05664-1.63463 39.04297.26747 59.75342 4.92082z" fill="#575a89" transform="translate(-145.68843 -61.05027)"/><path d="m494.563 384.323 4.921-66.784 1.406-40.069-15.465 2.811v37.258l-3.164 67.838" fill="#ffb9b9"/><g transform="translate(-145.68843 -61.05027)"><path d="m627.94955 446.42749s-20.38647 37.961-.703 35.14908 13.00518-36.20357 13.00518-36.20357" fill="#fff"/><path d="m654.31136 349.416s-2.49889-36.10212-23.39337-35.97709v41.7504s15.66057-9.2882 23.39337-5.77331z" fill="#575a89"/><path d="m596.48087 275.43624a.57367.57367 0 0 1 -.35852-1.0218l11.47291-9.17833a.57392.57392 0 1 1 .717.89632l-11.47291 9.17833a.57433.57433 0 0 1 -.35848.12548z" fill="#fff"/><path d="m597.3491 289.20374c-.25237.30972-.50474.61951-.76859.90633a22.498 22.498 0 0 1 -31.24086-15.55726l10.87124-2 21.13821 2c-4.84153 5.89709-4.2564 7.93919 0 14.65093z" fill="#fff"/><path d="m576.58438 238.14142s-11.62689 2.187-14.31567 16.68788a26.62077 26.62077 0 0 0 -.2277 7.40429c.26848 2.79126-.121 8.68672-6.18175 15.62856a151.96767 151.96767 0 0 0 -11.03539 14.17242l12.14907 3.23424 5.42817-20.12881a102.97 102.97 0 0 1 12.03225-27.655l.1116-.17906s4.03511 10.7817 14.8503 12.25976l-3.33469-4.39044s12.643 7.30862 19.806 9.54126a4.7063 4.7063 0 0 1 1.51868 8.1838q-.0762.05994-.15523.12c-5.26853 4.00163-16.01675 13.54991-11.77049 22.78659s-.70555 10.92077-.70555 10.92077l9.13111-3.47375 4.17929-1.78966-.4223 3.09005 20.40208.42743s5.51317-.03349-4.27975-14.74985c0 0-2.36295-5.51806-.42307-9.73367a22.393 22.393 0 0 0 2.2614-10.26077c-.61674-14.83685-6.86689-45.02104-49.01836-32.09604z" fill="#2f2e41"/><path d="m290.38435 660.7632s0 95.4619-21.90929 120.50109c0 0-4.69485 12.5196-6.2598 17.21445a65.79875 65.79875 0 0 1 -3.12989 7.82474v6.2598s-42.25363-4.69485-46.94848-15.64949l7.82474-9.3897s1.56495-1.56495 0-6.2598 3.1299-4.69484 3.1299-4.69484l10.95465-25.03919-1.56495-103.28666 7.82477-142.41038 67.29282-3.1299z" fill="#2f2e41"/><path d="m255.95547 803.17358s10.95464 32.86394 0 34.42889-106.41655 3.1299-104.8516-9.3897 32.86393-10.95464 32.86393-10.95464l32.86394-20.34434z" fill="#2f2e41"/><path d="m352.98232 505.83322s3.1299 20.34434-9.38969 42.25363-4.69485 95.46191-4.69485 95.46191l111.1114 97.02685s-21.90929 37.55878-29.734 35.99384-131.45578-101.72171-131.45578-101.72171l-48.5134-162.75474z" fill="#2f2e41"/><path d="m448.48225 736.429s33.62247 8.341 29.07974 18.43142-54.32622 91.5584-64.06288 83.53426 8.341-33.62247 8.341-33.62247l.41015-38.64922z" fill="#2f2e41"/><path d="m327.943 214.75529a35.79163 35.79163 0 0 1 -8.02355 22.63684 35.90387 35.90387 0 0 1 -34.93408 12.67061 34.92342 34.92342 0 0 1 -9.24888-3.18261 35.97122 35.97122 0 0 1 -18.73706-23.51835 35.453 35.453 0 0 1 -1.04585-8.60649 35.99471 35.99471 0 1 1 71.98942 0z" fill="#a0616a"/><path d="m320.26988 227.45253-1.592 46.31734-30.28613 11.96646s-2.97008-47.42592-7.16265-50.05519 39.04078-8.22861 39.04078-8.22861z" fill="#a0616a"/><path d="m280.99466 291.43516s42.25363-42.25363 53.20827-40.68868 10.95465 6.2598 10.95465 9.3897-3.1299 4.69485 0 6.2598 6.25979 0 6.25979 4.69484 28.16909 51.64333 18.7794 103.28666-20.34434 76.68251-15.6495 104.8516 1.56495 34.42888 1.56495 34.42888-117.37122 9.3897-118.93614-1.56496 4.69484-4.69485-3.1299-12.5196-4.69485-7.82475-4.69485-12.51959 34.42888-195.61865 51.64333-195.61865z" fill="#575a89"/><path d="m302.904 504.26827s-18.77945 45.38353-32.864 34.42888 6.2598-48.51343 6.2598-48.51343z" fill="#fff"/><path d="m348.28748 294.56506s36.76854 4.20949 23.07911 71.745-66.89769 145.78294-66.89769 145.78294l-35.99384-17.21445 46.94848-92.332-10.95464-57.90311s-6.2598-54.77322 43.81858-50.07838z" fill="#575a89"/></g><path d="m170.518 342.279-51.644 86.072 4.695 4.695z" opacity=".2"/><path d="m197.853 382.389-41.42 67.871h14.085z" opacity=".2"/><path d="m268.4153 563.38362h2.22678v115.56155h-2.22678z" opacity=".2" transform="matrix(.93434847 -.35636067 .35636067 .93434847 -349.35204 75.77956)"/><circle cx="135.52808" cy="236.75108" fill="#d0cde1" r="2.22625"/><path d="m135.52808 236.75108-18.92314 61.22192" fill="none"/><path d="m262.29338 360.13639a1.11255 1.11255 0 0 0 1.06312-.78484l18.92314-61.22137a1.11282 1.11282 0 1 0 -2.12625-.65766l-18.92314 61.22248a1.114 1.114 0 0 0 1.06313 1.44141z" fill="#d0cde1" transform="translate(-145.68843 -61.05027)"/><path d="m284.73145 242.32291-8.995 8.55722c-9.26383-4.66183-18.2118-17.22344-20.73706-27.51835l11.8019-4.94573c.77046 10.5002 8.22384 17.48095 17.93016 23.90686z" fill="#fff" transform="translate(-145.68843 -61.05027)"/><path d="m286.97418 222.89859a.74632.74632 0 0 1 -.10652-.0073l-20.9185-2.98836a.74721.74721 0 1 1 .21012-1.47958l20.9185 2.98835a.74714.74714 0 0 1 -.1036 1.48689z" fill="#fff" transform="translate(-145.68843 -61.05027)"/><path d="m283.98436 242.32291a.7464.7464 0 0 1 -.65078-1.11334l6.931-12.33865a.74677.74677 0 1 1 1.30157.7325l-6.931 12.33865a.74537.74537 0 0 1 -.65079.38084z" fill="#fff" transform="translate(-145.68843 -61.05027)"/><path d="m308.24058 236.38118c-2.91392-1.54067-6.29879-1.85831-9.45277-2.81594-11.284-3.4261-18.84319-16.18211-16.42984-27.72523a14.14679 14.14679 0 0 0 .59266-4.56945c-.42187-3.41873-3.92005-5.62462-7.27446-6.40793s-6.92345-.66954-10.12956-1.92914c-4.95028-1.94484-8.23855-7.03211-8.95138-12.30275s.85107-10.64613 3.39478-15.317l1.21166 3.48662a12.9329 12.9329 0 0 0 3.959-5.92118 8.15635 8.15635 0 0 1 6.21452 4.9975c1.94489 1.14685 2.22506-3.56292 4.37334-4.25772.89956-.29094 1.82459.26175 2.68142.66138 4.32884 2.019 9.35827.29275 14.00184-.82639a52.709 52.709 0 0 1 24.46832-.02881c5.3451 1.27491 10.6358 3.495 14.46058 7.44041 3.14109 3.24017 5.09822 7.43011 6.76463 11.62394 4.10226 10.32412 6.81231 21.49515 5.45807 32.52157a46.03362 46.03362 0 0 1 -10.84846 24.3902c-3.09742 3.56865-13.20293 16.01874-18.74393 13.89615-6.96235-2.66712 2.453-12.57884-5.75042-16.91623z" fill="#2f2e41" transform="translate(-145.68843 -61.05027)"/></svg>