<svg height="618.10603" viewBox="0 0 888 618.10603" width="888" xmlns="http://www.w3.org/2000/svg"><path d="m897.95656 235.99009-68.50224.66737c-3.21977-15.85137-14.03811-57.44279-4.29525-68.78728a16.67423 16.67423 0 0 1 17.56393-14.92057c10.61742-16.61983 28.30223-14.12446 40.255-3.74465 12.02932 4.15075 16.56454 11.52481 14.9786 21.53174 8.90863 7.798 10.55217 17.28535 6.55313 28.08487z" fill="#2f2e41" transform="translate(-156 -140.94698)"/><path d="m891.36207 278.18922-49.42241-6.8431-9.88449-14.44655c13.61613-9.03186 18.43428-21.64693 12.16552-38.77759l34.21552-.76034c-1.60321 15.25509 3.4416 27.06668 17.48793 34.21552z" fill="#ffb9b9" transform="translate(-156 -140.94698)"/><path d="m830.255 723.96651-1.88979 25.835a8.22428 8.22428 0 0 0 8.69988 8.80928l13.26991-.80379a4.19488 4.19488 0 0 0 3.81529-5.2044l-7.36591-29.46277z" fill="#e6e6e6" transform="translate(-156 -140.94698)"/><path d="m873.21559 723.13984-7.36591 29.46277a4.19488 4.19488 0 0 0 3.81529 5.2044l13.26994.80373a8.22428 8.22428 0 0 0 8.69988-8.80928l-1.88979-25.835z" fill="#e6e6e6" transform="translate(-156 -140.94698)"/><path d="m734.602 586.606-17.908-1.797-17.828-190.57-6.738 189.956-17.594-.63-29.653-263.08h113.291z" fill="#79d1c3"/><circle cx="707.22931" cy="55.125" fill="#ffb9b9" r="34.21552"/><path d="m930.9 467.51509-138.38276 1.52069c20.53674-78.18094 32.82143-150.80436 11.40517-200.731l34.21552-16.72758c16.49787 17.20783 34.87135 15.43378 54.74483-1.52069l32.69483 8.36379c-5.59975 65.47111-3.08993 135.5911 5.32241 209.09479z" fill="#79d1c3" transform="translate(-156 -140.94698)"/><path d="m754.5 386.91853 85.919 34.21552 19.20933 5.6498a6.645 6.645 0 0 0 8.32164-4.76336 6.645 6.645 0 0 0 -3.78319-7.69957l-19.94607-6.11272-60.06724-34.97586 12.54569-33.075-26.23192-14.06634z" fill="#ffb9b9" transform="translate(-156 -140.94698)"/><path d="m755.26034 324.57026c16.34695 6.37738 29.34874 17.26137 39.53794 31.93448l31.93448-46.381-22.81035-41.819z" fill="#79d1c3" transform="translate(-156 -140.94698)"/><path d="m901.792 190.52671c-13.88705-3.57812-27.54045-4.06939-40.81285.46912-8.45455 4.09479-18.60778 3.7175-29.89922.34366v-34.13686l60.95868 1.62557z" fill="#2f2e41" transform="translate(-156 -140.94698)"/><path d="m840.13379 347.053a10.14514 10.14514 0 0 0 -10.13379 10.13381l4 83.73242a10.14514 10.14514 0 0 0 10.13379 10.13377h45.73242a10.14514 10.14514 0 0 0 10.13379-10.13377l4-83.73242a10.14514 10.14514 0 0 0 -10.13379-10.13381z" fill="#3f3d56" transform="translate(-156 -140.94698)"/><path d="m969.89 380.593-74.89 29.82-5.65 2.25c-.18.07-.36.13-.55.19l-18.93 5.57c-2.42.71-5.77-2.55-7.73-4.8a6.08507 6.08507 0 0 1 -.16-7.93 6.74613 6.74613 0 0 1 .86005-.83 5.58864 5.58864 0 0 1 2.5-1.1l18.91-3.72a6.336 6.336 0 0 0 1.93-.72l8.82-5.14 45.79-26.66a6.21845 6.21845 0 0 0 2.69-7.58l-8.74-23.05a6.21114 6.21114 0 0 1 2.87-7.68l14.48-7.76a6.20589 6.20589 0 0 1 8.94 3.9l12.56995 47.88a6.21936 6.21936 0 0 1 -3.71 7.36z" fill="#ffb9b9" transform="translate(-156 -140.94698)"/><path d="m974.23966 316.20647c-16.34695 6.37737-29.34874 17.26136-39.53794 31.93448l-31.93448-46.381 22.81035-43.33965z" fill="#79d1c3" transform="translate(-156 -140.94698)"/><path d="m886 226.52555c-14.96826 6.22617-30.66333 5.97335-47 0 4.75366-8.114-2.352-14.46886-6-22.65975l61-1.81278c-4.66479 7.11563-11.548 15.52259-8 24.47253z" fill="#fff" transform="translate(-156 -140.94698)"/><path d="m737.354 62.46-.708-.707 1-1 5.974-6.972.76.65-6 7z" fill="#fff"/><path d="m830.99973 198.1481h1.00054v7.81025h-1.00054z" fill="#fff" transform="matrix(.64018439 -.76822129 .76822129 .64018439 -12.03491 570.53091)"/><path d="m880.4712 217.30312h19.55761v1.0002h-19.55761z" fill="#fff" transform="matrix(.537 -.84358 .84358 .537 72.44944 710.89356)"/><path d="m834.2499 208.02442h1.0002v19.55761h-1.0002z" fill="#fff" transform="matrix(.84366151 -.53687546 .53687546 .84366151 -142.42964 341.26087)"/><path d="m897 392.76847v18.11653l-6.30677 2.51154c-.20091.07814-.40183.14511-.61391.21209l-21.13032 6.21737c-2.70128.79249-6.44071-2.84639-8.62849-5.35792a6.79238 6.79238 0 0 1 -.17864-8.85175 7.53018 7.53018 0 0 1 .96-.9265 6.23835 6.23835 0 0 1 2.79059-1.2279l21.108-4.15237a7.072 7.072 0 0 0 2.15433-.80372z" fill="#fff" transform="translate(-156 -140.94698)"/><path d="m906.13975 328.1489h-3.6137c0-51.11056-10.52349-86.7288-20.77877-86.7288l-.90343-3.6137c9.197 0 15.06047 14.824 18.35965 27.26023 4.47301 16.85937 6.93625 39.26237 6.93625 63.08227z" fill="#3f3d56" transform="translate(-156 -140.94698)"/><path d="m823.02465 315.501h-3.61365c0-46.80915 10.59628-75.8877 26.19933-75.8877l-.90343 3.6137c-10.79262 0-21.68225 22.34781-21.68225 72.274z" fill="#3f3d56" transform="translate(-156 -140.94698)"/><circle cx="748.3329" cy="188.10534" fill="#3f3d56" r="9.03425"/><path d="m808.56985 337.18315h-3.6137c0-12.95188 7.2949-23.48905 16.26165-23.48905v3.6137c-6.97419 0-12.64795 8.91603-12.64795 19.87535z" fill="#3f3d56" transform="translate(-156 -140.94698)"/><path d="m837.47945 337.18315h-3.6137c0-10.95932-5.67375-19.87535-12.648-19.87535v-3.6137c8.96681 0 16.2617 10.53717 16.2617 23.48905z" fill="#3f3d56" transform="translate(-156 -140.94698)"/><circle cx="679.6726" cy="197.13959" fill="#3f3d56" r="3.6137"/><circle cx="650.763" cy="197.13959" fill="#3f3d56" r="3.6137"/><path d="m371.27061 216.64442-63.46607 10.74758a6.42418 6.42418 0 0 1 -7.27008-4.61266c-4.58533-16.54945-14.172-38.13882-4.86434-48.97662a17.80544 17.80544 0 0 1 18.75545-15.93281c11.33772-17.74734 30.22229-15.08269 42.98594-3.99869 12.84541 4.43234 17.6883 12.30667 15.99477 22.99248 5.54925 4.85742 8.45864 10.32871 9.07208 16.33389a23.58911 23.58911 0 0 1 -6.45376 18.35077z" fill="#2f2e41" transform="translate(-156 -140.94698)"/><path d="m361.40329 266.60948-49.20045-2.89414c4.82175-11.06687 6.74782-21.72377 4.82358-31.83558h36.65915c-.08308 7.76385 3.78049 21.19393 7.71772 34.72972z" fill="#9f616a" transform="translate(-156 -140.94698)"/><path d="m302.17961 721.236-2.018 27.58763a8.78223 8.78223 0 0 0 9.29009 9.40691l14.17019-.85826a4.47947 4.47947 0 0 0 4.07413-5.55747l-7.86563-31.46157z" fill="#e6e6e6" transform="translate(-156 -140.94698)"/><path d="m348.05471 720.35321-7.86563 31.46157a4.47947 4.47947 0 0 0 4.07413 5.55747l14.17019.85826a8.78223 8.78223 0 0 0 9.29009-9.40691l-2.018-27.58763z" fill="#e6e6e6" transform="translate(-156 -140.94698)"/><path d="m210.62 584.119-19.122-1.919-19.038-203.499-7.195 202.843-18.787-.673-31.665-280.927h120.977z" fill="#79d1c3"/><circle cx="180.3231" cy="66.10711" fill="#9f616a" r="36.53674"/><path d="m377.50189 189.6c-14.82916-2.58256-29.40882-2.93714-43.58164.3386-9.02812 2.95548-19.87016 2.68316-31.92763.248v-24.63881l65.0942 1.17328z" fill="#2f2e41" transform="translate(-156 -140.94698)"/><path d="m360.63859 236.37015c-15.98373 6.64857-32.74357 6.37859-50.18855 0 5.07616-8.66447-2.51161-15.45044-6.407-24.197l65.13832-1.93576c-4.9813 7.59835-12.33144 16.57561-8.54277 26.13276z" fill="#fff" transform="translate(-156 -140.94698)"/><path d="m301.94089 206.06748h1.00054v8.33965h-1.00054z" fill="#fff" transform="matrix(.64017862 -.7682261 .7682261 .64017862 -208.68499 167.04408)"/><path d="m354.73467 226.55581h20.88467v1.0002h-20.88467z" fill="#fff" transform="matrix(.537 -.84358 .84358 .537 -178.46379 272.23589)"/><path d="m305.41177 216.61358h1.0002v20.88467h-1.0002z" fill="#fff" transform="matrix(.84366 -.53687 .53687 .84366 -230.07485 58.78582)"/><path d="m266.86126 373.69281-27.97673-17.36487 23.85922-69.8789a32.96549 32.96549 0 0 1 14.40973-17.11578l8.03736-4.6532.69885 70.49475z" fill="#79d1c3" transform="translate(-156 -140.94698)"/><path d="m387.78912 407.6312-4.13912-35.45239c-.221-18.71283 2.96247-36.80463 10.55359-53.47473l3.85883-52.09461-42.44742-17.36486c-.13019.865-.24084 1.72943-.365 2.5943l-19.894 9.947-19.40174-4.40943.10743-6.20239-38.58857 17.36487c12.76124 59.328 5.801 120.93756-16.14379 193.709l50.83691 13.9007.42267-24.41046 45.3067-3.23615c.46667 7.91968.84167 15.69873 1.05933 23.30536 25.56524 9.412 26.44336 9.256 49.73651-4.22021-9.27617-19.50299-16.62095-39.79767-20.90233-59.956z" fill="#79d1c3" transform="translate(-156 -140.94698)"/><path d="m297.051 224.063-26.047-8.682-41.664-48.503 12.722-41.215 57.883 81.036z" fill="#79d1c3"/><path d="m371.41927 402.56029a7.24568 7.24568 0 0 0 8.65511 5.459l22.11071-5.00728-3.19562-14.11319-22.11118 5.00634a7.23668 7.23668 0 0 0 -5.459 8.65511z" fill="#e6e6e6" transform="translate(-156 -140.94698)"/><path d="m391.30944 386.23409 12.54129 23.15316c21.09424-5.88333 39.37571-24.43091 56.91816-46.30631l-4.82357-15.43543-29.90615 7.71772z" fill="#79d1c3" transform="translate(-156 -140.94698)"/><path d="m71.79 172.661 24.076 4.299 55.031 78.247-29.235-6.879z" fill="#e6e6e6"/><path d="m223.51976 312.65011a2.04777 2.04777 0 0 0 -1.68024 3.17254l51.43935 78.04626a2.04112 2.04112 0 0 0 1.23887.86532l23.93321 5.631a2.04428 2.04428 0 0 0 2.14046-3.166l-56.47726-80.30353a2.03243 2.03243 0 0 0 -1.31282-.83611l-18.89578-3.37459a2.21656 2.21656 0 0 0 -.38579-.03489z" fill="#3f3d56" transform="translate(-156 -140.94698)"/><path d="m255.60782 368.45235 1.42965 14.40006 22.55962-2.23938a7.2354 7.2354 0 0 0 -1.42917-14.40006z" fill="#e6e6e6" transform="translate(-156 -140.94698)"/><path d="m235.99086 366.78436a18.6092 18.6092 0 0 0 18.58724 18.485h3.70954l2.70054-22.50545-22.36037-8.04981z" fill="#79d1c3" transform="translate(-156 -140.94698)"/><path d="m211.399 71.78-.707-.707 1.068-1.068 6.381-7.447.759.65-6.407 7.475z" fill="#fff"/><path d="m0 616.10603h888v2h-888z" fill="#3f3d56"/><g transform="translate(-156 -140.94698)"><path d="m495 756.053h210v-254.71638c0-13.4877-13.28516-24.4604-29.61426-24.4604h-150.77148c-16.32959 0-29.61426 10.9727-29.61426 24.4604z" fill="#e6e6e6"/><path d="m511 745.52h178v-215.9025c0-11.43243-11.26075-20.7331-25.10161-20.7331h-127.79678c-13.84127 0-25.10161 9.30067-25.10161 20.7331z" fill="#fff"/><path d="m493.41357 457.053c-5.19043 0-9.41357 3.48817-9.41357 7.7753v22.44387c0 4.28712 4.22314 7.7753 9.41357 7.7753h213.17334c5.19043 0 9.41309-3.48818 9.41309-7.7753v-22.44385c0-4.28713-4.22266-7.7753-9.41309-7.7753z" fill="#3f3d56"/><path d="m537.18078 717.83565a9.22367 9.22367 0 0 0 -9.19666 9.19663 9.22369 9.22369 0 0 0 9.19666 9.19666h17.21422v-18.39329z" fill="#3f3d56"/><path d="m570.19444 717.83565h-16.74264v18.39335h16.74264a9.22369 9.22369 0 0 0 9.19666-9.19666 9.22367 9.22367 0 0 0 -9.19666-9.19669z" fill="#79d1c3"/><path d="m576.19558 720.08792a9.1437 9.1437 0 0 1 2.25227 6.00111 9.22369 9.22369 0 0 1 -9.19666 9.19666h-15.79939v.94325h16.74264a9.22369 9.22369 0 0 0 9.19666-9.19666 9.1765 9.1765 0 0 0 -3.19552-6.94436z" opacity=".2"/><path d="m614.86141 579.30953a9.22367 9.22367 0 0 0 -13.00036-.38384 9.22369 9.22369 0 0 0 -.38382 13.00038l11.8078 12.52624 13.3842-12.61656z" fill="#3f3d56"/><path d="m637.50651 603.33246-11.4843-12.18306-13.38421 12.6166 11.4843 12.18305a9.2237 9.2237 0 0 0 13.00038.38383 9.22366 9.22366 0 0 0 .38383-13.00042z" fill="#79d1c3"/><path d="m639.984 609.24419a9.14368 9.14368 0 0 1 -2.8219 5.75525 9.22369 9.22369 0 0 1 -13.00038-.38382l-10.83734-11.49662-.68637.647 11.4843 12.18305a9.2237 9.2237 0 0 0 13.00038.38383 9.17654 9.17654 0 0 0 2.86131-7.08869z" opacity=".2"/><path d="m565.86141 608.30953a9.22367 9.22367 0 0 0 -13.00036-.38384 9.22369 9.22369 0 0 0 -.38382 13.00038l11.8078 12.52624 13.3842-12.61656z" fill="#3f3d56"/><path d="m588.50651 632.33246-11.4843-12.18306-13.38421 12.6166 11.4843 12.18305a9.2237 9.2237 0 0 0 13.00038.38383 9.22366 9.22366 0 0 0 .38383-13.00042z" fill="#79d1c3"/><path d="m590.984 638.24419a9.14368 9.14368 0 0 1 -2.8219 5.75525 9.22369 9.22369 0 0 1 -13.00038-.38382l-10.83734-11.49662-.68637.647 11.4843 12.18305a9.2237 9.2237 0 0 0 13.00038.38383 9.17654 9.17654 0 0 0 2.86131-7.08869z" opacity=".2"/><path d="m614.86141 635.30953a9.22367 9.22367 0 0 0 -13.00036-.38384 9.22369 9.22369 0 0 0 -.38382 13.00038l11.8078 12.52624 13.3842-12.61656z" fill="#3f3d56"/><path d="m637.50651 659.33246-11.4843-12.18306-13.38421 12.6166 11.4843 12.18305a9.2237 9.2237 0 0 0 13.00038.38383 9.22366 9.22366 0 0 0 .38383-13.00042z" fill="#79d1c3"/><path d="m639.984 665.24419a9.14368 9.14368 0 0 1 -2.8219 5.75525 9.22369 9.22369 0 0 1 -13.00038-.38382l-10.83734-11.49662-.68637.647 11.4843 12.18305a9.2237 9.2237 0 0 0 13.00038.38383 9.17654 9.17654 0 0 0 2.86131-7.08869z" opacity=".2"/><path d="m644.754 692.77653a9.22367 9.22367 0 0 0 .22582-13.00406 9.22369 9.22369 0 0 0 -13.00408-.22581l-12.38186 11.95914 12.77828 13.22989z" fill="#3f3d56"/><path d="m621.008 715.7119 12.04259-11.63151-12.77825-13.22989-12.0426 11.6315a9.2237 9.2237 0 0 0 -.2258 13.00409 9.22367 9.22367 0 0 0 13.00406.22581z" fill="#79d1c3"/><path d="m615.12683 718.261a9.14377 9.14377 0 0 1 -5.78912-2.75175 9.22369 9.22369 0 0 1 .2258-13.00408l11.36412-10.97617-.65529-.67846-12.0426 11.63146a9.2237 9.2237 0 0 0 -.2258 13.00409 9.17651 9.17651 0 0 0 7.12289 2.77491z" opacity=".2"/><path d="m578.754 663.77653a9.22367 9.22367 0 0 0 .22582-13.00406 9.22369 9.22369 0 0 0 -13.00408-.22581l-12.38186 11.95914 12.77828 13.22989z" fill="#3f3d56"/><path d="m555.008 686.7119 12.04259-11.63151-12.77825-13.22989-12.0426 11.6315a9.2237 9.2237 0 0 0 -.2258 13.00409 9.22367 9.22367 0 0 0 13.00406.22581z" fill="#79d1c3"/><path d="m549.12683 689.261a9.14377 9.14377 0 0 1 -5.78912-2.75175 9.22369 9.22369 0 0 1 .2258-13.00408l11.36412-10.97617-.65529-.67846-12.0426 11.63146a9.2237 9.2237 0 0 0 -.2258 13.00409 9.17651 9.17651 0 0 0 7.12289 2.77491z" opacity=".2"/><path d="m672.754 628.77653a9.22367 9.22367 0 0 0 .22582-13.00406 9.22369 9.22369 0 0 0 -13.00408-.22581l-12.38186 11.95914 12.77828 13.22989z" fill="#3f3d56"/><path d="m649.008 651.7119 12.04259-11.63151-12.77825-13.22989-12.0426 11.6315a9.2237 9.2237 0 0 0 -.2258 13.00409 9.22367 9.22367 0 0 0 13.00406.22581z" fill="#79d1c3"/><path d="m643.12683 654.261a9.14377 9.14377 0 0 1 -5.78912-2.75175 9.22369 9.22369 0 0 1 .2258-13.00408l11.36412-10.97617-.65529-.67846-12.0426 11.63146a9.2237 9.2237 0 0 0 -.2258 13.00409 9.17651 9.17651 0 0 0 7.12289 2.77491z" opacity=".2"/><path d="m651.86141 701.30953a9.22367 9.22367 0 0 0 -13.00036-.38384 9.22369 9.22369 0 0 0 -.38382 13.00038l11.8078 12.52624 13.3842-12.61656z" fill="#3f3d56"/><path d="m674.50651 725.33246-11.4843-12.18306-13.38421 12.6166 11.4843 12.18305a9.2237 9.2237 0 0 0 13.00038.38383 9.22366 9.22366 0 0 0 .38383-13.00042z" fill="#79d1c3"/><path d="m676.984 731.24419a9.14368 9.14368 0 0 1 -2.8219 5.75525 9.22369 9.22369 0 0 1 -13.00038-.38382l-10.83734-11.49662-.68637.647 11.4843 12.18305a9.2237 9.2237 0 0 0 13.00038.38383 9.17654 9.17654 0 0 0 2.86131-7.08869z" opacity=".2"/><path d="m586.86141 700.30953a9.22367 9.22367 0 0 0 -13.00036-.38384 9.22369 9.22369 0 0 0 -.38382 13.00038l11.8078 12.52624 13.3842-12.61656z" fill="#3f3d56"/><path d="m609.50651 724.33246-11.4843-12.18306-13.38421 12.6166 11.4843 12.18305a9.2237 9.2237 0 0 0 13.00038.38383 9.22366 9.22366 0 0 0 .38383-13.00042z" fill="#79d1c3"/><path d="m611.984 730.24419a9.14368 9.14368 0 0 1 -2.8219 5.75525 9.22369 9.22369 0 0 1 -13.00038-.38382l-10.83734-11.49662-.68637.647 11.4843 12.18305a9.2237 9.2237 0 0 0 13.00038.38383 9.17654 9.17654 0 0 0 2.86131-7.08869z" opacity=".2"/><path d="m605.15789 667.31618a13.26311 13.26311 0 0 1 -10.61052 12.99782 13.39494 13.39494 0 0 1 -5.30526 0 13.26647 13.26647 0 0 1 0-25.99579 13.39692 13.39692 0 0 1 5.30526 0 13.26319 13.26319 0 0 1 10.61052 12.99797z" fill="#79d1c3"/><path d="m594.54737 654.31826v25.99574a13.39494 13.39494 0 0 1 -5.30526 0v-25.99574a13.39692 13.39692 0 0 1 5.30526 0z" opacity=".2"/><path d="m611.15789 614.31618a13.26311 13.26311 0 0 1 -10.61052 12.99782 13.39494 13.39494 0 0 1 -5.30526 0 13.26647 13.26647 0 0 1 0-25.99579 13.39692 13.39692 0 0 1 5.30526 0 13.26319 13.26319 0 0 1 10.61052 12.99797z" fill="#79d1c3"/><path d="m600.54737 601.31826v25.99574a13.39494 13.39494 0 0 1 -5.30526 0v-25.99574a13.39692 13.39692 0 0 1 5.30526 0z" opacity=".2"/><path d="m611.15789 690.31618a13.26311 13.26311 0 0 1 -10.61052 12.99782 13.39494 13.39494 0 0 1 -5.30526 0 13.26647 13.26647 0 0 1 0-25.99579 13.39692 13.39692 0 0 1 5.30526 0 13.26319 13.26319 0 0 1 10.61052 12.99797z" fill="#79d1c3"/><path d="m600.54737 677.31826v25.99574a13.39494 13.39494 0 0 1 -5.30526 0v-25.99574a13.39692 13.39692 0 0 1 5.30526 0z" opacity=".2"/><path d="m644.15789 727.31618a13.26311 13.26311 0 0 1 -10.61052 12.99782 13.39494 13.39494 0 0 1 -5.30526 0 13.26647 13.26647 0 0 1 0-25.99579 13.39692 13.39692 0 0 1 5.30526 0 13.26319 13.26319 0 0 1 10.61052 12.99797z" fill="#79d1c3"/><path d="m633.54737 714.31826v25.99574a13.39494 13.39494 0 0 1 -5.30526 0v-25.99574a13.39692 13.39692 0 0 1 5.30526 0z" opacity=".2"/><path d="m673.30955 659.24039a13.26311 13.26311 0 0 1 1.995 16.65977 13.3949 13.3949 0 0 1 -3.68171 3.81979 13.26649 13.26649 0 0 1 -18.717-18.04042 13.397 13.397 0 0 1 3.68172-3.81978 13.26318 13.26318 0 0 1 16.72199 1.38064z" fill="#79d1c3"/><path d="m656.58762 657.85975 18.717 18.04041a13.3949 13.3949 0 0 1 -3.68171 3.81979l-18.717-18.04042a13.397 13.397 0 0 1 3.68172-3.81978z" opacity=".2"/><path d="m677.30955 688.24039a13.26311 13.26311 0 0 1 1.995 16.65977 13.3949 13.3949 0 0 1 -3.68171 3.81979 13.26649 13.26649 0 0 1 -18.717-18.04042 13.397 13.397 0 0 1 3.68172-3.81978 13.26318 13.26318 0 0 1 16.72199 1.38064z" fill="#79d1c3"/><path d="m660.58762 686.85975 18.717 18.04041a13.3949 13.3949 0 0 1 -3.68171 3.81979l-18.717-18.04042a13.397 13.397 0 0 1 3.68172-3.81978z" opacity=".2"/><path d="m558.30955 695.24039a13.26311 13.26311 0 0 1 1.995 16.65977 13.3949 13.3949 0 0 1 -3.68171 3.81979 13.26649 13.26649 0 0 1 -18.717-18.04042 13.397 13.397 0 0 1 3.68172-3.81978 13.26318 13.26318 0 0 1 16.72199 1.38064z" fill="#79d1c3"/><path d="m541.58762 693.85975 18.717 18.04041a13.3949 13.3949 0 0 1 -3.68171 3.81979l-18.717-18.04042a13.397 13.397 0 0 1 3.68172-3.81978z" opacity=".2"/></g><path d="m354.5 316.10603h5v37h-5z" opacity=".2"/><path d="m383.5 316.10603h5v37h-5z" opacity=".2"/><path d="m412.5 316.10603h5v37h-5z" opacity=".2"/><path d="m441.5 316.10603h5v37h-5z" opacity=".2"/><path d="m470.5 316.10603h5v37h-5z" opacity=".2"/><path d="m499.5 316.10603h5v37h-5z" opacity=".2"/><path d="m528.5 316.10603h5v37h-5z" opacity=".2"/></svg>