<svg height='100px' width='100px'  fill="#050505" xmlns="http://www.w3.org/2000/svg" viewBox="0 0 64 64" x="0px" y="0px"><title>Mask</title><g><path d="M52,20.059V18a1,1,0,0,0-1-1H13a1,1,0,0,0-1,1v2.059A9.01,9.01,0,0,0,4,29v6a9.01,9.01,0,0,0,8,8.941V46a1,1,0,0,0,1,1H51a1,1,0,0,0,1-1V43.941A9.01,9.01,0,0,0,60,35V29A9.01,9.01,0,0,0,52,20.059ZM50,31H14V25H50ZM14,33H50v6H14Zm0-14H50v4H14V19ZM6,35V29a7.0109,7.0109,0,0,1,6-6.9287V41.9287A7.0109,7.0109,0,0,1,6,35ZM50,45H14V41H50v4Zm8-10a7.0109,7.0109,0,0,1-6,6.9287V22.0713A7.0109,7.0109,0,0,1,58,29Z"></path></g></svg>