<svg enable-background="new 0 0 100 100" height="100" viewBox="0 0 100 100" width="100" xmlns="http://www.w3.org/2000/svg"><path d="m86.551 26.51c-.071-.255-.241-.472-.473-.602l-17.65-9.929c-.149-.084-.318-.128-.49-.128h-8.428c-.553 0-1 .448-1 1 0 4.605-3.747 8.353-8.353 8.353s-8.353-3.747-8.353-8.353c0-.552-.447-1-1-1-.052 0-.097.022-.146.029-.013-.002-.024-.001-.037-.003-.045-.006-.084-.026-.13-.026h-8.428c-.172 0-.341.044-.49.128l-17.65 9.929c-.231.13-.401.347-.473.602s-.039.529.092.76l8.431 14.981c.184.327.522.51.872.51.166 0 .334-.041.489-.128l9.014-5.071-5.885 39.273c-.064.431.157.854.549 1.046l16.649 8.167c.139.068.29.102.44.102.143 0 .285-.03.418-.092.273-.125.476-.368.551-.659l5.759-22.358 6.31 22.38c.085.298.303.541.59.656.12.048.247.072.373.072.176 0 .352-.046.507-.138l13.89-8.167c.348-.204.538-.597.484-.997l-5.358-39.303 9.043 5.088c.481.271 1.091.1 1.361-.381l8.431-14.981c.13-.231.162-.504.091-.76zm-36.394.693c3.461 0 6.522-1.713 8.403-4.33-.573 2.39-1.421 4.912-2.637 6.407-2.42 2.975-4.994 3.87-6.531 4.405-.152.053-.294.103-.427.15-2.324-.748-4.623-2.003-6.014-4.112-2.92-4.428-3.091-7.735-2.68-9.792 1.316 4.209 5.25 7.272 9.886 7.272zm-6.718 56.508-2.972-1.458c.001-.079.004-.159-.018-.24-.036-.136-.098-.258-.178-.362-.214-.277-.562-.412-.92-.37-.049.005-.096-.004-.144.008-.132.035-.248.097-.351.174l-5.768-2.829c.05-.164.062-.34.016-.519-.144-.543-.7-.867-1.243-.724-.229.061-.407.201-.535.378l-2.778-1.363 1.211-8.084c.378-.227.587-.669.47-1.116-.043-.164-.133-.299-.239-.416l1.65-11.021c.244.201.566.299.896.213.271-.071.488-.246.618-.471.131-.225.176-.5.104-.771-.143-.543-.698-.867-1.24-.725-.046.012-.081.043-.124.061l2.413-16.104c.425-.209.671-.678.545-1.153-.051-.193-.166-.344-.302-.47l.077-.514c.007-.043-.007-.082-.007-.125.002-.068.003-.133-.01-.202-.013-.07-.037-.132-.064-.197-.016-.038-.017-.078-.037-.115-.01-.018-.028-.028-.039-.045-.038-.059-.085-.107-.135-.157-.044-.044-.085-.089-.136-.125-.049-.033-.103-.055-.157-.079-.066-.03-.131-.058-.201-.073-.02-.004-.035-.017-.055-.02-.042-.006-.079.007-.12.006-.069-.002-.136-.003-.204.009-.076.013-.145.04-.214.069-.033.014-.068.015-.101.033l-5.062 2.848c-.077-.01-.152-.029-.233-.02-.05.005-.099-.004-.149.009-.315.083-.536.313-.65.593l-3.83 2.155-.164-.292c-.005-.058-.005-.116-.021-.174-.062-.23-.206-.408-.382-.541l-2.058-3.656c.092.001.184.008.277-.017.542-.143.866-.699.725-1.241-.144-.544-.7-.868-1.243-.725-.269.071-.481.243-.613.464l-3.971-7.057 7.272-4.091c.03.025.056.059.09.079.226.131.5.176.771.104.488-.129.78-.594.733-1.081l7.683-4.322h6.49c-.909 2.248-1.649 6.733 2.467 12.975.902 1.368 2.092 2.425 3.409 3.25.006.05-.004.098.009.148.107.408.447.691.84.748.131.019.268.012.404-.024.067-.018.119-.059.179-.088 3.448 1.655 7.358 2.003 9.369 2.06l-1.41 5.476c-.461.193-.731.686-.601 1.182.038.145.109.271.198.379l-2.686 10.442c-1.665-1.576-4.28-3.719-5.958-3.468-.139.021-.27.06-.396.107-.231-.149-.519-.211-.807-.135-.543.143-.866.699-.724 1.242.046.173.143.312.258.433-.478 1.25-.447 2.367.101 3.327.256.448.626.839 1.094 1.184-.043.164-.06.335-.014.511.145.542.698.867 1.241.725.219-.058.388-.193.52-.356.962.338 2.143.578 3.546.722-.23.518-.958 1.969-2.325 3.269-.234-.157-.526-.225-.82-.147-.542.144-.865.699-.722 1.243.007.025.024.043.033.068-.65.395-1.391.723-2.229.933-.536.134-.862.677-.728 1.213.113.454.521.757.969.757.08 0 .162-.009.243-.03 1.801-.45 3.219-1.325 4.322-2.298l-1.029 3.995c-.118.178-.168.388-.156.609zm14.357-23.771c.046.176.146.317.266.438-.05.131-.094.26-.162.4-.765-.011-3.101-1.765-5.132-3.85 3.897.319 5.012 1.284 5.329 1.839.021.038.027.084.045.125-.301.246-.452.649-.346 1.048zm-4.087 5.943-.701-2.487c.436.827.864 1.627 1.233 2.292-.062.004-.125.004-.188.021-.13.034-.242.099-.344.174zm-8.507-10.97c-.279-.489-.214-1.163.197-2.01.75.011 3.011 1.701 5.014 3.733l-.026.103c-3.777-.332-4.871-1.278-5.185-1.826zm37.871-25.704c-.226-.134-.499-.188-.772-.116-.032.009-.056.031-.087.043-.355.131-.609.435-.66.796-.02.13-.013.267.023.403.075.285.268.501.509.629l-3.146 5.591c-.23-.366-.668-.566-1.108-.45-.543.143-.865.699-.724 1.242.118.451.525.733.97.74l-1.301 2.312-3.618-2.036c-.154-.528-.696-.844-1.233-.702-.003.001-.005.002-.008.003l-5.065-2.85c-.314-.177-.7-.165-1.009.023.01-.115.01-.232-.021-.351-.142-.543-.697-.867-1.24-.724s-.867.699-.725 1.242c.144.543.7.867 1.243.723.102-.027.187-.08.271-.133-.007.075-.011.15-.001.226l.475 3.483c-.429.208-.676.679-.55 1.156.104.396.43.668.808.736l.621 4.553c.005.056-.005.11.01.166.004.014.014.023.018.037l4.159 30.506-11.286 6.635c.004-.098.009-.197-.018-.297-.035-.136-.097-.258-.178-.363-.242-.313-.656-.469-1.062-.362-.031.008-.053.028-.082.04l-.992-3.519c.053-.005.104.004.156-.009.541-.143.864-.699.721-1.242-.062-.234-.209-.416-.39-.548-.238-.175-.542-.257-.85-.176-.008.002-.013.007-.02.01-.057.016-.101.05-.151.075l-.999-3.546c.082 0 .165-.005.249-.027.542-.143.865-.699.723-1.242-.05-.188-.161-.337-.292-.462-.247-.236-.595-.356-.948-.263-.095.025-.182.065-.262.113l-1.014-3.597c.022.002.044.012.067.013.096.003.191.009.288-.017.261-.069.462-.239.594-.452.022.029.048.067.066.087.193.22.459.33.729.33.228 0 .459-.079.649-.238.416-.347.468-.978.132-1.403-.277-.351-1.558-2.738-2.925-5.383 1.38 1.129 2.963 2.155 4.169 2.155.097 0 .19-.006.281-.02.615-.091 1.11-.455 1.395-1.022.752-1.505.811-2.834.173-3.952-.916-1.605-3.19-2.531-6.919-2.836l4.836-18.775c.079-.307.007-.633-.192-.879s-.505-.378-.821-.369c-.041.001-1.919.07-4.338-.294 1.29-.633 2.793-1.615 4.274-3.187.238.333.659.506 1.081.395.543-.143.867-.699.724-1.242-.081-.308-.3-.532-.568-.654 2.025-2.994 3.015-8.123 3.427-10.965.173-.238.252-.541.172-.848-.009-.033-.031-.057-.043-.087.009-.069.015-.123.022-.186h6.188l5.103 2.871c0 .087-.008.174.016.262.143.543.698.867 1.241.723.099-.026.181-.079.264-.13l5.839 3.285c.002.006-.001.013.001.019.144.543.7.867 1.243.724.016-.004.026-.016.041-.02l2.803 1.577z"/><circle cx="19.181" cy="29.283" r="1.017"/><circle cx="39.776" cy="35.521" r="1.017"/><path d="m26.268 32.197c-.136.036-.258.098-.362.179-.314.242-.47.657-.362 1.064.143.543.699.867 1.242.724.152-.041.28-.121.393-.217.188-.16.319-.377.354-.622.019-.131.012-.268-.024-.404-.144-.543-.699-.867-1.241-.724z"/><circle cx="32.432" cy="31.623" r="1.017"/><circle cx="38.339" cy="30.066" r="1.017"/><path d="m26.07 27.466c-.144-.543-.698-.867-1.241-.724-.407.107-.692.447-.748.839-.02.131-.013.268.023.403.107.407.447.691.84.747h.005c.129.018.264.012.397-.023.202-.053.359-.176.487-.322.219-.244.327-.579.237-.92z"/><circle cx="30.994" cy="26.169" r="1.017"/><circle cx="36.9" cy="24.611" r="1.017"/><circle cx="29.557" cy="20.714" r="1.017"/><circle cx="35.462" cy="19.156" r="1.017"/><circle cx="63.402" cy="29.293" r="1.017"/><circle cx="61.964" cy="23.838" r="1.017"/><circle cx="69.309" cy="27.735" r="1.017"/><circle cx="75.215" cy="26.179" r="1.017"/><circle cx="67.872" cy="22.281" r="1.017"/><path d="m36.16 66.052c.019-.13.013-.267-.023-.402-.107-.408-.447-.692-.839-.748-.131-.019-.268-.012-.403.023-.543.143-.867.699-.724 1.243.035.136.098.258.178.362.027.034.066.054.098.085.015.015.031.028.048.042.05.043.091.096.147.129.204.119.449.154.695.109.025-.005.051.002.077-.004.406-.107.69-.447.746-.839z"/><path d="m34.698 60.195c-.036-.136-.098-.258-.178-.363-.214-.277-.562-.412-.92-.37-.049.005-.096-.004-.144.008-.543.143-.868.699-.725 1.243.144.543.7.868 1.243.725.091-.024.166-.075.244-.12.386-.225.599-.672.48-1.123z"/><circle cx="39.622" cy="58.896" r="1.017"/><circle cx="38.184" cy="53.441" r="1.017"/><circle cx="36.746" cy="47.987" r="1.017"/><circle cx="42.652" cy="46.431" r="1.017"/><path d="m35.567 43.516c.543-.143.867-.7.725-1.243-.107-.407-.447-.691-.84-.747-.131-.019-.268-.012-.403.023-.543.143-.867.699-.724 1.242.143.544.699.868 1.242.725z"/><path d="m40.231 41.234c.036.136.098.258.179.362.242.313.656.47 1.063.362.543-.143.867-.699.725-1.242-.144-.543-.7-.867-1.244-.724-.542.143-.865.699-.723 1.242z"/><path d="m63.703 58.382c.105.401.436.679.82.741.137.022.279.02.422-.018.406-.107.69-.447.747-.838.019-.131.012-.267-.023-.403-.144-.543-.7-.868-1.243-.724-.136.036-.258.097-.361.178-.314.242-.469.657-.362 1.064z"/><circle cx="57.342" cy="54.225" r="1.017"/><circle cx="63.248" cy="52.668" r="1.017"/><path d="m48.991 50.184c-.02.13-.013.267.023.403.143.543.699.868 1.242.724.542-.143.865-.699.723-1.242-.061-.23-.205-.408-.382-.541-.136-.102-.286-.183-.457-.207-.131-.019-.267-.012-.402.023-.079.021-.143.067-.212.105-.286.154-.49.419-.535.735z"/><circle cx="55.903" cy="48.771" r="1.018"/><circle cx="61.809" cy="47.214" r="1.017"/><path d="m47.576 45.132c.063.242.217.43.406.562.237.166.535.241.837.162.406-.108.689-.447.745-.839.02-.131.013-.267-.023-.403-.144-.543-.698-.868-1.241-.725s-.867.7-.724 1.243z"/><circle cx="60.371" cy="41.759" r="1.017"/><path d="m47.094 40.418c.096.003.191.009.288-.017.406-.107.689-.447.745-.839.019-.131.012-.267-.024-.403-.035-.136-.097-.258-.178-.362-.161-.209-.399-.348-.66-.385-.131-.019-.268-.012-.403.023-.542.144-.866.699-.724 1.242.118.447.516.729.956.741z"/><path d="m52.222 38.483c.242.313.657.469 1.065.361.406-.107.69-.447.747-.839.019-.131.012-.267-.023-.403-.107-.407-.447-.691-.84-.748-.13-.019-.267-.012-.402.023-.544.144-.868.7-.725 1.243.035.136.098.258.178.363z"/><path d="m59.94 36.448c.019-.13.012-.267-.023-.403-.144-.543-.7-.867-1.243-.724-.543.144-.866.699-.724 1.242.072.271.246.488.472.62.225.131.499.176.771.104.407-.107.691-.447.747-.839z"/><circle cx="70.747" cy="33.19" r="1.017"/><path d="m76.393 30.65c-.136.036-.257.097-.361.178-.313.242-.468.657-.36 1.064.035.136.097.258.178.362.073.095.166.17.266.233.01.006.017.017.026.023.225.131.5.177.771.105.407-.107.691-.447.747-.84.02-.13.013-.267-.023-.403-.144-.541-.7-.866-1.244-.722z"/><circle cx="30.685" cy="72.92" r="1.017"/><path d="m37.865 75.829c-.032.005-.062-.003-.095.005-.133.035-.253.096-.355.175-.002.001-.004.001-.006.002-.314.243-.471.657-.363 1.065.144.543.7.867 1.243.724.271-.072.488-.247.618-.471.131-.225.176-.5.104-.772-.133-.51-.635-.812-1.146-.728z"/><circle cx="43.936" cy="75.26" r="1.017"/><path d="m37.574 71.104c-.144-.543-.698-.867-1.241-.724-.407.107-.692.447-.748.839-.02.13-.013.267.023.403.072.271.246.488.472.619.144.084.31.116.48.122.096.003.192.009.29-.017.202-.053.359-.176.488-.322.218-.245.326-.579.236-.92z"/><circle cx="42.498" cy="69.806" r="1.017"/><path d="m42.044 64.092c-.107-.407-.447-.691-.84-.748-.131-.019-.268-.012-.403.023-.543.143-.867.699-.724 1.243.143.543.699.866 1.242.723s.868-.698.725-1.241z"/><circle cx="63.094" cy="76.044" r="1.016"/><circle cx="68.999" cy="74.487" r="1.017"/><circle cx="61.655" cy="70.59" r="1.018"/><circle cx="67.561" cy="69.033" r="1.017"/><circle cx="60.217" cy="65.135" r="1.017"/><circle cx="66.123" cy="63.578" r="1.017"/></svg>