<svg width="726" height="314" xmlns="http://www.w3.org/2000/svg" xmlns:xlink="http://www.w3.org/1999/xlink" overflow="hidden"><defs><clipPath id="clip0"><path d="M287 207 1013 207 1013 521 287 521Z" fill-rule="evenodd" clip-rule="evenodd"/></clipPath></defs><g clip-path="url(#clip0)" transform="translate(-287 -207)"><path d="M299 287.18 333.667 222.935 378.467 212 414.2 231.82 436.067 261.209 459 304.266 427 307 407.8 251.64 374.2 231.137 342.733 237.971 318.2 287.18 299 287.18Z" stroke="#000000" stroke-width="8" stroke-miterlimit="8" fill="#FFFFFF" fill-rule="evenodd"/><path d="M0 64.8921 42.9001 9.43886 98.3401 0 142.56 17.108 169.62 42.4748 198 79.6403 158.4 82 134.64 34.2159 93.06 16.518 54.1201 22.4173 23.7601 64.8921 0 64.8921Z" stroke="#000000" stroke-width="8" stroke-miterlimit="8" fill="#FFFFFF" fill-rule="evenodd" transform="matrix(-1 -8.74228e-08 -8.74228e-08 1 1002 218)"/><path d="M306.558 438.792 326.41 456.609 356.85 481.685 446.185 504.122 525.593 516 579.856 488.944 603.017 441.431 636.104 407.117 647.353 390.619 650 256 481.257 267.878 358.174 273.817 295.309 285.695 292 379.401 306.558 438.792Z" stroke="#000000" stroke-width="8" stroke-miterlimit="8" fill="#FFFFFF" fill-rule="evenodd"/><path d="M14.5583 182.792 34.4104 200.609 64.8503 225.685 154.185 248.122 233.593 260 287.856 232.944 311.017 185.431 344.104 151.117 355.353 134.619 358 0 189.257 11.8782 66.1738 17.8172 3.30868 29.6954 0 123.401 14.5583 182.792Z" stroke="#000000" stroke-width="8" stroke-miterlimit="8" fill="#FFFFFF" fill-rule="evenodd" transform="matrix(-1 -8.74228e-08 -8.74228e-08 1 1008 256)"/></g></svg>