<svg width="100" height="100" viewBox="0 0 100 100" fill="none" xmlns="http://www.w3.org/2000/svg">
    <path fill-rule="evenodd" clip-rule="evenodd" d="M13.2897 42.1497L16.9154 35.4534L21.601 34.3136L25.3382 36.3795L27.6252 39.4427L30.0237 43.9306L26.6769 44.2156L24.6688 38.4453L21.1547 36.3083L17.8636 37.0206L15.2978 42.1497H13.2897Z" fill="white" stroke="black" stroke-width="2" stroke-miterlimit="8"/>
    <path fill-rule="evenodd" clip-rule="evenodd" d="M86.8148 41.7028L82.328 35.9228L76.5297 34.939L71.9048 36.7222L69.0747 39.3662L66.1065 43.24L70.2482 43.486L72.7332 38.5053L77.0819 36.6607L81.1546 37.2756L84.3298 41.7028L86.8148 41.7028Z" fill="white" stroke="black" stroke-width="2" stroke-miterlimit="8"/>
    <path fill-rule="evenodd" clip-rule="evenodd" d="M14.0802 57.9525L16.1564 59.8096L19.3401 62.4233L28.6834 64.7619L36.9885 66L42.6638 63.1799L45.0861 58.2276L48.5466 54.651L49.7231 52.9313L50 38.8998L32.3515 40.1378L19.4786 40.7569L12.9037 41.9949L12.5576 51.7621L14.0802 57.9525Z" fill="white" stroke="black" stroke-width="2" stroke-miterlimit="8"/>
    <path fill-rule="evenodd" clip-rule="evenodd" d="M85.9198 57.9525L83.8435 59.8096L80.6598 62.4233L71.3165 64.7619L63.0114 66L57.3362 63.1799L54.9138 58.2276L51.4533 54.6509L50.2768 52.9313L50 38.8998L67.6484 40.1379L80.5214 40.7569L87.0963 41.995L87.4424 51.7621L85.9198 57.9525Z" fill="white" stroke="black" stroke-width="2" stroke-miterlimit="8"/>
</svg>
