<svg height='100px' width='100px'  fill="#000000" xmlns="http://www.w3.org/2000/svg" xmlns:xlink="http://www.w3.org/1999/xlink" version="1.1" x="0px" y="0px" viewBox="0 0 96 96" enable-background="new 0 0 96 96" xml:space="preserve"><g><path fill="#000000" d="M17.45,64.601v5.501c0,0.69,0.56,1.25,1.25,1.25H77.31c0.69,0,1.25-0.56,1.25-1.25V64.6   c8.755-0.621,15.69-7.819,15.69-16.599c0-8.781-6.936-15.979-15.69-16.601v-5.501c0-0.69-0.56-1.25-1.25-1.25H18.7   c-0.69,0-1.25,0.56-1.25,1.25V31.4c-8.76,0.619-15.7,7.818-15.7,16.602C1.75,56.784,8.69,63.983,17.45,64.601z M78.56,33.9   c7.376,0.613,13.19,6.698,13.19,14.101c0,7.402-5.814,13.485-13.19,14.1V33.9z M19.95,27.149H76.06v41.703H19.95V27.149z    M17.45,33.9v28.201c-7.381-0.61-13.2-6.695-13.2-14.1C4.25,40.596,10.069,34.51,17.45,33.9z"></path><path fill="#000000" d="M26.516,37.441c2.647,0,4.802-2.154,4.802-4.803c0-2.647-2.154-4.802-4.802-4.802   c-2.648,0-4.803,2.154-4.803,4.802C21.713,35.287,23.867,37.441,26.516,37.441z M26.516,30.336c1.27,0,2.302,1.033,2.302,2.302   c0,1.27-1.032,2.303-2.302,2.303s-2.303-1.033-2.303-2.303C24.213,31.369,25.246,30.336,26.516,30.336z"></path><path fill="#000000" d="M26.516,58.562c-2.648,0-4.803,2.152-4.803,4.799c0,2.649,2.154,4.805,4.803,4.805   c2.647,0,4.802-2.155,4.802-4.805C31.317,60.714,29.163,58.562,26.516,58.562z M26.516,65.666c-1.27,0-2.303-1.034-2.303-2.305   c0-1.268,1.033-2.299,2.303-2.299s2.302,1.031,2.302,2.299C28.817,64.631,27.785,65.666,26.516,65.666z"></path><path fill="#000000" d="M69.487,37.441c2.647,0,4.802-2.154,4.802-4.803c0-2.647-2.154-4.802-4.802-4.802   c-2.648,0-4.803,2.154-4.803,4.802C64.685,35.287,66.839,37.441,69.487,37.441z M69.487,30.336c1.27,0,2.302,1.033,2.302,2.302   c0,1.27-1.032,2.303-2.302,2.303s-2.303-1.033-2.303-2.303C67.185,31.369,68.218,30.336,69.487,30.336z"></path><path fill="#000000" d="M69.487,58.562c-2.648,0-4.803,2.152-4.803,4.799c0,2.649,2.154,4.805,4.803,4.805   c2.647,0,4.802-2.155,4.802-4.805C74.289,60.714,72.135,58.562,69.487,58.562z M69.487,65.666c-1.27,0-2.303-1.034-2.303-2.305   c0-1.268,1.033-2.299,2.303-2.299s2.302,1.031,2.302,2.299C71.789,64.631,70.757,65.666,69.487,65.666z"></path><path fill="#000000" d="M37.806,46.751H22.6c-0.69,0-1.25,0.56-1.25,1.25s0.56,1.25,1.25,1.25h15.206c0.69,0,1.25-0.56,1.25-1.25   S38.496,46.751,37.806,46.751z"></path><path fill="#000000" d="M49.835,46.751h-4.508c-0.69,0-1.25,0.56-1.25,1.25s0.56,1.25,1.25,1.25h4.508c0.69,0,1.25-0.56,1.25-1.25   S50.525,46.751,49.835,46.751z"></path><path fill="#000000" d="M73.411,46.751H58.204c-0.69,0-1.25,0.56-1.25,1.25s0.56,1.25,1.25,1.25h15.207c0.69,0,1.25-0.56,1.25-1.25   S74.102,46.751,73.411,46.751z"></path></g></svg>