<svg height='100px' width='100px'  fill="#000000" xmlns:dc="http://purl.org/dc/elements/1.1/" xmlns:cc="http://creativecommons.org/ns#" xmlns:rdf="http://www.w3.org/1999/02/22-rdf-syntax-ns#" xmlns:svg="http://www.w3.org/2000/svg" xmlns="http://www.w3.org/2000/svg" xmlns:sodipodi="http://sodipodi.sourceforge.net/DTD/sodipodi-0.dtd" xmlns:inkscape="http://www.inkscape.org/namespaces/inkscape" version="1.1" x="0px" y="0px" viewBox="0 0 32 32" enable-background="new 0 0 32 32" xml:space="preserve"><path style="" d="M 16 7.25 C 15.362 7.25 14.723 7.469 14.1875 7.875 L 9.28125 11.59375 C 8.54025 12.15575 7.49625 12.12725 6.78125 11.53125 L 3.65625 8.9375 C 3.23225 8.5835 2.57275 8.6375 2.21875 9.0625 C 2.06975 9.2425 2 9.4535 2 9.6875 L 2 14.6875 C 2.747 16.4495 3.86825 18.0225 5.28125 19.3125 C 7.84225 21.6505 10.8845 23.41675 14.1875 24.46875 C 15.3725 24.84575 16.6275 24.84575 17.8125 24.46875 C 21.1165 23.41675 24.15875 21.6505 26.71875 19.3125 C 28.13175 18.0225 29.253 16.4495 30 14.6875 L 30 9.6875 C 30 9.1355 29.552 8.6875 29 8.6875 C 28.766 8.6875 28.52375 8.7875 28.34375 8.9375 L 25.21875 11.53125 C 24.50375 12.12725 23.45975 12.15575 22.71875 11.59375 L 17.8125 7.875 C 17.277 7.469 16.638 7.25 16 7.25 z M 16 8.25 C 16.425 8.25 16.86175 8.38575 17.21875 8.65625 L 22.125 12.40625 C 23.238 13.24825 24.803 13.2065 25.875 12.3125 L 29 9.6875 L 29 14.46875 C 28.31 16.02575 27.28925 17.4145 26.03125 18.5625 C 23.57725 20.8035 20.69825 22.492 17.53125 23.5 C 16.54525 23.814 15.45475 23.814 14.46875 23.5 C 11.30175 22.491 8.3915 20.8025 5.9375 18.5625 C 4.6795 17.4145 3.69 16.02475 3 14.46875 L 3 9.6875 L 6.125 12.3125 C 7.197 13.2065 8.762 13.24825 9.875 12.40625 L 14.78125 8.65625 C 15.13825 8.38575 15.575 8.25 16 8.25 z " fill="#000000"></path><path style="" d="m 14.708,9.948 c 0.817,-0.39 1.767,-0.39 2.584,0 0.883,0.421 1.691,0.984 2.394,1.666 0.297,0.289 0.304,0.763 0.016,1.061 -0.289,0.297 -0.764,0.304 -1.061,0.016 -0.506,-0.491 -1.079,-0.909 -1.701,-1.24 -0.587,-0.313 -1.292,-0.313 -1.879,0 -0.622,0.331 -1.195,0.749 -1.701,1.24 -0.297,0.289 -0.771,0.281 -1.061,-0.016 -0.288,-0.297 -0.281,-0.772 0.016,-1.061 0.702,-0.682 1.51,-1.244 2.393,-1.666 z" fill="#000000"></path></svg>